{"glyphs":{":":{"x_min":0,"x_max":275,"ha":275,"o":"m 65 61 q 65 97 83 116 q 102 135 137 135 q 173 135 191 115 q 210 95 210 61 q 210 26 191 6 q 172 -14 137 -14 q 102 -14 83 6 q 65 26 65 61 z m 65 478 q 65 552 137 552 q 174 552 192 532 q 210 513 210 478 q 210 443 191 423 q 172 403 137 403 q 102 403 83 423 q 65 443 65 478 z"},"$":{"x_min":0,"x_max":571,"ha":571,"o":"m 519 221 q 519 150 467 104 q 416 59 318 48 l 318 -58 l 253 -58 l 253 45 q 132 47 54 82 l 54 185 q 96 165 152 151 q 208 137 253 136 l 253 319 l 212 334 q 132 365 95 407 q 58 450 58 513 q 58 581 111 624 q 163 667 253 677 l 253 759 l 318 759 l 318 678 q 417 675 506 638 l 470 549 q 394 579 318 585 l 318 407 l 355 393 q 448 357 483 318 q 519 278 519 221 z m 404 214 q 404 242 384 260 q 364 279 318 296 l 318 140 q 404 153 404 214 z m 173 514 q 173 486 190 468 q 208 449 253 431 l 253 583 q 214 577 193 559 q 173 541 173 514 z"},"?":{"x_min":0,"x_max":453,"ha":453,"o":"m 138 217 l 138 248 q 138 302 158 337 q 177 373 226 411 q 284 457 301 482 q 318 508 318 543 q 318 584 291 606 q 263 628 212 628 q 166 628 126 615 q 86 602 49 583 l 8 669 q 107 724 220 724 q 316 724 372 677 q 428 630 428 548 q 428 511 417 483 q 407 454 385 428 q 363 402 310 361 q 265 325 249 302 q 234 278 234 239 l 234 217 z m 118 61 q 118 135 190 135 q 225 135 244 115 q 262 96 262 61 q 262 26 243 6 q 225 -14 190 -14 q 155 -14 137 6 q 118 25 118 61 z"},"<":{"x_min":0,"x_max":571,"ha":571,"o":"m 524 108 l 47 318 l 47 377 l 524 615 l 524 520 l 166 352 l 524 204 z"},"'":{"x_min":0,"x_max":243,"ha":243,"o":"m 178 714 l 158 456 l 85 456 l 65 714 z"},"=":{"x_min":0,"x_max":571,"ha":571,"o":"m 50 406 l 50 493 l 520 493 l 520 406 z m 50 211 l 50 298 l 520 298 l 520 211 z"},"a":{"x_min":0,"x_max":580,"ha":580,"o":"m 420 0 l 397 75 l 393 75 q 354 26 314 8 q 275 -10 213 -10 q 133 -10 89 33 q 44 76 44 155 q 44 238 106 281 q 168 323 295 327 l 388 330 l 388 359 q 388 411 364 436 q 340 462 289 462 q 248 462 209 450 q 171 438 136 421 l 99 503 q 143 526 195 538 q 248 550 294 550 q 397 550 449 505 q 502 460 502 364 l 502 0 z m 249 78 q 312 78 349 113 q 387 148 387 211 l 387 258 l 318 255 q 237 252 200 228 q 163 204 163 154 q 163 118 185 98 q 206 78 249 78 z"},"L":{"x_min":0,"x_max":542,"ha":542,"o":"m 94 0 l 94 714 l 211 714 l 211 100 l 513 100 l 513 0 z"},"3":{"x_min":0,"x_max":571,"ha":571,"o":"m 501 550 q 501 482 461 437 q 422 392 350 376 l 350 372 q 436 361 479 319 q 522 276 522 205 q 522 102 449 46 q 376 -10 242 -10 q 124 -10 42 29 l 42 131 q 87 108 138 96 q 189 84 236 84 q 319 84 360 115 q 401 146 401 210 q 401 267 355 294 q 310 321 213 321 l 151 321 l 151 414 l 214 414 q 385 414 385 532 q 385 578 355 603 q 325 628 267 628 q 227 628 189 616 q 151 605 100 572 l 44 652 q 142 724 272 724 q 380 724 440 678 q 501 631 501 550 z"},";":{"x_min":0,"x_max":278,"ha":278,"o":"m 194 116 l 201 105 q 178 14 115 -129 l 31 -129 q 64 3 81 116 z m 64 478 q 64 552 136 552 q 173 552 191 532 q 209 513 209 478 q 209 443 190 423 q 171 403 136 403 q 101 403 83 423 q 64 443 64 478 z"},"J":{"x_min":0,"x_max":299,"ha":299,"o":"m 4 -199 q -44 -199 -76 -187 l -76 -89 q -35 -99 -5 -99 q 91 -99 91 22 l 91 714 l 208 714 l 208 26 q 208 -83 156 -141 q 104 -199 4 -199 z"},"V":{"x_min":0,"x_max":622,"ha":622,"o":"m 501 714 l 622 714 l 372 0 l 249 0 l 0 714 l 120 714 l 269 270 q 281 238 294 188 q 307 138 311 114 q 317 151 331 200 q 344 249 352 272 z"},"\"":{"x_min":0,"x_max":436,"ha":436,"o":"m 178 714 l 158 456 l 85 456 l 65 714 z m 371 714 l 351 456 l 278 456 l 258 714 z"},"7":{"x_min":0,"x_max":571,"ha":571,"o":"m 125 0 l 407 612 l 36 612 l 36 713 l 530 713 l 530 633 l 249 0 z"},"S":{"x_min":0,"x_max":550,"ha":550,"o":"m 506 194 q 506 99 437 44 q 368 -10 247 -10 q 126 -10 49 28 l 49 138 q 98 115 153 102 q 208 89 255 89 q 324 89 357 115 q 390 142 390 186 q 390 226 360 254 q 330 282 235 320 q 137 359 97 410 q 57 461 57 532 q 57 622 121 673 q 184 724 291 724 q 394 724 495 679 l 458 584 q 363 624 288 624 q 231 624 202 599 q 173 575 173 534 q 173 506 185 487 q 196 467 223 449 q 250 432 320 403 q 398 370 435 342 q 472 313 489 278 q 506 242 506 194 z"},"}":{"x_min":0,"x_max":371,"ha":371,"o":"m 226 -10 q 226 -86 177 -122 q 129 -157 22 -158 l 22 -69 q 68 -68 94 -50 q 120 -32 120 13 l 120 141 q 120 200 146 232 q 172 265 232 275 l 232 281 q 120 300 120 397 l 120 542 q 120 582 98 602 q 76 623 22 625 l 22 714 q 131 714 178 677 q 226 639 226 554 l 226 414 q 226 365 257 345 q 288 324 349 324 l 349 231 q 289 231 258 210 q 226 189 226 140 z"},"Z":{"x_min":0,"x_max":575,"ha":575,"o":"m 543 0 l 32 0 l 32 81 l 392 614 l 42 614 l 42 714 l 533 714 l 533 632 l 172 100 l 543 100 z"},"x":{"x_min":0,"x_max":551,"ha":551,"o":"m 202 276 l 21 540 l 152 540 l 275 351 l 399 540 l 529 540 l 347 276 l 538 0 l 408 0 l 275 202 l 142 0 l 12 0 z"},")":{"x_min":0,"x_max":317,"ha":317,"o":"m 277 274 q 277 146 239 35 q 201 -76 130 -158 l 31 -158 q 98 -67 134 44 q 170 156 170 275 q 170 395 134 508 q 98 622 30 714 l 130 714 q 202 628 239 515 q 277 402 277 274 z"},"&":{"x_min":0,"x_max":740,"ha":740,"o":"m 220 560 q 220 529 237 502 q 253 475 282 444 q 337 475 360 502 q 382 529 382 563 q 382 595 361 614 q 339 633 304 633 q 266 633 243 613 q 220 593 220 560 z m 293 89 q 382 89 446 141 l 259 325 q 207 292 188 263 q 168 234 168 197 q 168 149 202 119 q 236 89 293 89 z m 47 189 q 47 253 78 301 q 109 348 191 395 q 145 449 128 487 q 111 524 111 564 q 111 638 164 681 q 217 724 306 724 q 393 724 442 682 q 491 641 491 570 q 491 514 458 469 q 425 423 348 378 l 517 215 q 557 267 583 368 l 701 368 q 667 229 592 142 l 739 0 l 591 0 l 518 71 q 468 31 412 10 q 355 -10 287 -10 q 175 -10 111 43 q 47 97 47 189 z"},"_":{"x_min":0,"x_max":429,"ha":429,"o":"m 431 -156 l -2 -156 l -2 -90 l 431 -90 z"},"v":{"x_min":0,"x_max":535,"ha":535,"o":"m 205 0 l 0 540 l 121 540 l 231 226 q 259 147 265 98 l 269 98 q 273 133 303 226 l 413 540 l 535 540 l 329 0 z"},"O":{"x_min":0,"x_max":787,"ha":787,"o":"m 728 358 q 728 184 641 87 q 554 -10 394 -10 q 232 -10 146 86 q 59 182 59 359 q 59 536 146 630 q 233 725 395 725 q 554 725 641 629 q 728 533 728 358 z m 183 358 q 183 226 236 158 q 290 90 394 90 q 498 90 551 157 q 604 225 604 358 q 604 489 552 557 q 499 625 395 625 q 290 625 237 557 q 183 489 183 358 z"},"(":{"x_min":0,"x_max":317,"ha":317,"o":"m 40 274 q 40 403 78 516 q 116 629 187 714 l 287 714 q 219 622 183 508 q 147 394 147 275 q 147 156 183 44 q 219 -68 286 -158 l 187 -158 q 115 -75 78 36 q 40 146 40 274 z"},"C":{"x_min":0,"x_max":634,"ha":634,"o":"m 398 624 q 297 624 240 553 q 182 481 182 356 q 182 225 238 157 q 293 90 398 90 q 443 90 486 99 q 528 108 574 122 l 574 22 q 490 -10 384 -10 q 227 -10 143 85 q 59 180 59 357 q 59 468 100 552 q 141 635 218 680 q 295 724 399 724 q 508 724 601 678 l 559 581 q 523 598 483 611 q 442 624 398 624 z"},"W":{"x_min":0,"x_max":946,"ha":946,"o":"m 753 0 l 626 0 l 505 426 q 497 454 485 506 q 474 559 471 579 q 466 548 455 498 q 444 448 437 424 l 319 0 l 192 0 l 100 357 l 6 714 l 125 714 l 227 298 q 251 198 261 121 q 267 163 277 214 q 288 265 297 297 l 413 714 l 529 714 l 648 295 q 665 237 684 121 q 691 191 719 299 l 821 714 l 939 714 z"},"A":{"x_min":0,"x_max":661,"ha":661,"o":"m 537 0 l 466 198 l 193 198 l 123 0 l 0 0 l 267 717 l 394 717 l 661 0 z m 435 299 l 368 493 q 361 513 348 555 q 335 597 330 616 q 317 556 292 485 l 227 299 z"},"f":{"x_min":0,"x_max":363,"ha":363,"o":"m 353 453 l 221 453 l 221 0 l 106 0 l 106 453 l 17 453 l 17 507 l 106 542 l 106 577 q 106 673 151 719 q 196 765 288 765 q 349 765 407 745 l 377 658 q 334 672 296 672 q 257 672 239 648 q 221 624 221 575 l 221 540 l 353 540 z"},"Q":{"x_min":0,"x_max":787,"ha":787,"o":"m 728 358 q 728 228 678 139 q 629 50 534 14 l 705 -170 l 548 -170 l 413 -10 l 394 -10 q 232 -10 146 86 q 59 182 59 359 q 59 536 146 630 q 233 725 395 725 q 554 725 641 629 q 728 533 728 358 z m 183 358 q 183 226 236 158 q 290 90 394 90 q 498 90 551 157 q 604 225 604 358 q 604 489 552 557 q 499 625 395 625 q 290 625 237 557 q 183 489 183 358 z"},"w":{"x_min":0,"x_max":817,"ha":817,"o":"m 525 0 l 455 252 q 442 292 409 438 l 405 438 q 376 306 360 251 l 288 0 l 161 0 l 10 540 l 127 540 l 196 274 q 219 175 229 105 l 232 105 q 237 141 247 187 q 257 233 264 256 l 346 540 l 472 540 l 552 256 q 559 232 570 183 q 581 133 583 106 l 587 106 q 594 166 621 274 l 691 540 l 806 540 l 654 0 z"},"-":{"x_min":0,"x_max":322,"ha":322,"o":"m 35 219 l 35 317 l 286 317 l 286 219 z"},"E":{"x_min":0,"x_max":558,"ha":558,"o":"m 498 0 l 94 0 l 94 714 l 498 714 l 498 615 l 211 615 l 211 421 l 480 421 l 480 323 l 211 323 l 211 99 l 498 99 z"},"s":{"x_min":0,"x_max":487,"ha":487,"o":"m 445 154 q 445 75 387 32 q 330 -10 222 -10 q 114 -10 49 23 l 49 122 q 144 78 226 78 q 332 78 332 142 q 332 163 320 176 q 309 190 282 205 q 255 219 207 238 q 114 274 81 310 q 48 346 48 404 q 48 473 104 511 q 160 550 256 550 q 351 550 436 511 l 399 425 q 312 461 252 461 q 161 461 161 409 q 161 384 185 366 q 208 349 288 318 q 355 292 385 271 q 416 249 430 221 q 445 193 445 154 z"},">":{"x_min":0,"x_max":571,"ha":571,"o":"m 47 204 l 405 352 l 47 520 l 47 615 l 524 377 l 524 318 l 47 108 z"},"l":{"x_min":0,"x_max":279,"ha":279,"o":"m 197 0 l 82 0 l 82 760 l 197 760 z"},"8":{"x_min":0,"x_max":571,"ha":571,"o":"m 285 723 q 387 723 446 677 q 505 630 505 552 q 505 442 373 377 q 457 335 492 289 q 528 242 528 185 q 528 97 463 43 q 398 -10 287 -10 q 171 -10 107 40 q 43 90 43 181 q 43 241 76 288 q 110 336 186 373 q 121 412 93 456 q 65 499 65 553 q 65 631 126 677 q 187 723 285 723 z m 153 185 q 153 134 188 106 q 224 78 285 78 q 348 78 383 107 q 418 136 418 186 q 418 226 386 258 q 354 291 288 319 l 274 325 q 209 297 181 263 q 153 229 153 185 z m 284 635 q 235 635 206 611 q 176 586 176 545 q 176 520 187 500 q 197 479 218 463 q 238 447 287 424 q 346 450 370 478 q 394 507 394 545 q 394 586 364 611 q 334 635 284 635 z"},"\\":{"x_min":0,"x_max":390,"ha":390,"o":"m 116 714 l 382 0 l 274 0 l 8 714 z"},"e":{"x_min":0,"x_max":576,"ha":576,"o":"m 318 -10 q 192 -10 121 64 q 50 137 50 266 q 50 398 116 474 q 182 550 297 550 q 404 550 466 485 q 528 420 528 306 l 528 244 l 168 244 q 170 166 210 123 q 250 81 323 81 q 371 81 412 90 q 454 99 501 120 l 501 27 q 459 7 416 -1 q 373 -10 318 -10 z m 297 463 q 242 463 209 428 q 176 394 170 327 l 415 327 q 414 394 383 428 q 352 463 297 463 z"},"b":{"x_min":0,"x_max":623,"ha":623,"o":"m 358 550 q 459 550 515 477 q 572 403 572 271 q 572 138 515 64 q 458 -10 356 -10 q 253 -10 197 64 l 189 64 l 168 0 l 82 0 l 82 760 l 197 760 l 197 579 q 197 559 195 520 q 193 480 192 469 l 197 469 q 251 550 358 550 z m 328 456 q 259 456 228 415 q 198 375 197 279 l 197 271 q 197 172 228 128 q 259 84 330 84 q 391 84 423 132 q 454 181 454 272 q 454 456 328 456 z"},"%":{"x_min":0,"x_max":862,"ha":862,"o":"m 136 500 q 136 427 150 392 q 165 356 197 356 q 261 356 261 500 q 261 644 197 644 q 165 644 150 608 q 136 573 136 500 z m 356 501 q 356 389 316 332 q 275 276 197 276 q 123 276 82 334 q 41 393 41 501 q 41 724 197 724 q 273 724 315 666 q 356 608 356 501 z m 601 215 q 601 142 615 106 q 630 70 662 70 q 726 70 726 215 q 726 358 662 358 q 630 358 615 323 q 601 288 601 215 z m 821 215 q 821 103 780 46 q 740 -10 662 -10 q 588 -10 547 48 q 506 106 506 215 q 506 438 662 438 q 737 438 779 380 q 821 323 821 215 z m 676 714 l 280 0 l 185 0 l 581 714 z"},"m":{"x_min":0,"x_max":956,"ha":956,"o":"m 537 0 l 422 0 l 422 333 q 422 395 398 426 q 375 456 325 456 q 259 456 228 413 q 197 370 197 269 l 197 0 l 82 0 l 82 540 l 172 540 l 188 469 l 194 469 q 216 508 259 529 q 302 550 353 550 q 478 550 518 465 l 526 465 q 550 505 593 527 q 637 550 693 550 q 790 550 834 501 q 878 452 878 352 l 878 0 l 763 0 l 763 333 q 763 395 740 426 q 716 456 666 456 q 599 456 568 414 q 537 373 537 286 z"},"#":{"x_min":0,"x_max":646,"ha":646,"o":"m 483 425 l 456 286 l 588 286 l 588 204 l 440 204 l 401 0 l 314 0 l 353 204 l 232 204 l 193 0 l 108 0 l 145 204 l 23 204 l 23 286 l 161 286 l 189 425 l 60 425 l 60 507 l 203 507 l 242 713 l 330 713 l 291 507 l 414 507 l 453 713 l 538 713 l 499 507 l 622 507 l 622 425 z m 247 286 l 369 286 l 397 425 l 275 425 z"},",":{"x_min":0,"x_max":267,"ha":267,"o":"m 201 105 q 178 14 115 -129 l 31 -129 q 64 3 81 116 l 194 116 z"},"n":{"x_min":0,"x_max":635,"ha":635,"o":"m 557 0 l 442 0 l 442 332 q 442 395 417 425 q 392 456 337 456 q 264 456 230 413 q 197 370 197 269 l 197 0 l 82 0 l 82 540 l 172 540 l 188 469 l 194 469 q 218 508 263 529 q 308 550 363 550 q 557 550 557 352 z"},"h":{"x_min":0,"x_max":635,"ha":635,"o":"m 557 0 l 442 0 l 442 332 q 442 395 417 425 q 392 456 337 456 q 265 456 231 413 q 197 370 197 268 l 197 0 l 82 0 l 82 760 l 197 760 l 197 567 q 197 521 191 468 l 198 468 q 222 507 263 528 q 305 550 361 550 q 557 550 557 352 z"},"z":{"x_min":0,"x_max":478,"ha":478,"o":"m 443 0 l 33 0 l 33 71 l 306 452 l 50 452 l 50 540 l 435 540 l 435 460 l 168 88 l 443 88 z"},"B":{"x_min":0,"x_max":660,"ha":660,"o":"m 94 714 l 306 714 q 454 714 519 671 q 585 628 585 535 q 585 473 553 431 q 521 390 460 379 l 460 374 q 535 360 571 318 q 606 276 606 205 q 606 109 539 54 q 472 0 352 0 l 94 0 z m 211 419 l 323 419 q 396 419 430 442 q 464 465 464 521 q 464 571 427 594 q 391 616 312 616 l 211 616 z m 211 324 l 211 98 l 335 98 q 408 98 446 126 q 483 154 483 215 q 483 271 445 297 q 407 324 329 324 z"},"K":{"x_min":0,"x_max":639,"ha":639,"o":"m 639 0 l 504 0 l 280 323 l 211 267 l 211 0 l 94 0 l 94 714 l 211 714 l 211 373 q 259 432 306 486 l 499 714 l 632 714 q 445 494 364 401 z"},"R":{"x_min":0,"x_max":639,"ha":639,"o":"m 211 382 l 292 382 q 374 382 410 412 q 447 442 447 502 q 447 562 407 589 q 368 615 288 615 l 211 615 z m 211 285 l 211 0 l 94 0 l 94 714 l 296 714 q 434 714 500 662 q 567 610 567 506 q 567 373 428 316 l 630 0 l 497 0 l 326 285 z"},"T":{"x_min":0,"x_max":566,"ha":566,"o":"m 341 0 l 224 0 l 224 614 l 14 614 l 14 714 l 551 714 l 551 614 l 341 614 z"},"P":{"x_min":0,"x_max":615,"ha":615,"o":"m 567 498 q 567 386 494 327 q 420 267 285 267 l 211 267 l 211 0 l 94 0 l 94 714 l 300 714 q 434 714 500 659 q 567 604 567 498 z m 211 365 l 273 365 q 363 365 405 396 q 447 428 447 494 q 447 556 409 586 q 372 616 292 616 l 211 616 z"},"|":{"x_min":0,"x_max":551,"ha":551,"o":"m 231 758 l 319 758 l 319 -235 l 231 -235 z"},"t":{"x_min":0,"x_max":393,"ha":393,"o":"m 283 83 q 325 83 367 96 l 367 10 q 348 1 318 -4 q 288 -10 256 -10 q 93 -10 93 162 l 93 453 l 19 453 l 19 504 l 98 546 l 137 660 l 208 660 l 208 540 l 362 540 l 362 453 l 208 453 l 208 164 q 208 123 229 103 q 250 83 283 83 z"},"M":{"x_min":0,"x_max":923,"ha":923,"o":"m 403 0 l 196 596 l 192 596 q 200 463 200 347 l 200 0 l 94 0 l 94 714 l 259 714 l 457 146 l 460 146 l 664 714 l 829 714 l 829 0 l 717 0 l 717 353 q 717 406 719 492 q 722 577 724 595 l 720 595 l 506 0 z"},"g":{"x_min":0,"x_max":556,"ha":556,"o":"m 538 540 l 538 477 l 446 460 q 458 443 467 418 q 475 393 475 365 q 475 282 417 234 q 360 186 259 186 q 233 186 212 190 q 175 167 175 136 q 175 118 192 108 q 209 99 256 99 l 350 99 q 439 99 486 61 q 532 23 532 -49 q 532 -141 457 -190 q 381 -240 238 -240 q 127 -240 69 -201 q 11 -162 11 -90 q 11 -40 43 -6 q 74 28 131 41 q 108 51 93 73 q 78 94 78 118 q 78 148 95 169 q 112 190 146 211 q 104 229 78 270 q 52 311 52 365 q 52 453 107 501 q 163 550 265 550 q 288 550 313 547 q 338 543 351 540 z m 114 -84 q 114 -121 147 -141 q 181 -161 241 -161 q 335 -161 381 -134 q 427 -107 427 -63 q 427 -28 402 -13 q 376 2 308 2 l 221 2 q 172 2 143 -21 q 114 -44 114 -84 z m 163 365 q 163 314 189 287 q 215 260 264 260 q 364 260 364 366 q 364 419 339 448 q 314 476 264 476 q 214 476 189 448 q 163 419 163 365 z"},"j":{"x_min":0,"x_max":279,"ha":279,"o":"m 27 -240 q -25 -240 -59 -228 l -59 -137 q -26 -146 9 -146 q 82 -146 82 -63 l 82 540 l 197 540 l 197 -71 q 197 -154 153 -197 q 109 -240 27 -240 z m 75 683 q 75 714 92 730 q 109 747 140 747 q 170 747 187 730 q 204 714 204 683 q 204 654 187 637 q 170 620 140 620 q 109 620 92 637 q 75 654 75 683 z"},"i":{"x_min":0,"x_max":279,"ha":279,"o":"m 197 0 l 82 0 l 82 540 l 197 540 z m 75 683 q 75 714 92 730 q 109 747 140 747 q 170 747 187 730 q 204 714 204 683 q 204 654 187 637 q 170 620 140 620 q 109 620 92 637 q 75 654 75 683 z"},"y":{"x_min":0,"x_max":536,"ha":536,"o":"m 0 540 l 125 540 l 235 234 q 260 168 268 111 l 272 111 q 276 138 288 176 q 300 214 412 540 l 536 540 l 305 -72 q 242 -240 95 -240 q 57 -240 21 -232 l 21 -141 q 47 -147 80 -147 q 163 -147 197 -51 l 217 0 z"},"@":{"x_min":0,"x_max":898,"ha":898,"o":"m 843 361 q 843 291 821 233 q 799 175 759 143 q 719 111 667 111 q 628 111 600 131 q 572 152 562 187 l 556 187 q 532 149 497 130 q 462 111 418 111 q 338 111 293 162 q 247 213 247 301 q 247 401 308 464 q 368 527 470 527 q 507 527 552 520 q 598 514 633 502 l 622 275 l 622 263 q 622 185 673 185 q 711 185 734 235 q 757 285 757 362 q 757 445 723 509 q 688 572 625 606 q 562 640 481 640 q 377 640 300 597 q 223 554 183 474 q 142 395 142 289 q 142 147 218 71 q 293 -5 435 -5 q 543 -5 660 39 l 660 -41 q 558 -83 437 -83 q 256 -83 155 14 q 54 112 54 286 q 54 414 109 513 q 164 612 260 665 q 357 718 480 718 q 586 718 669 674 q 751 630 797 549 q 843 467 843 361 z m 341 299 q 341 185 430 185 q 524 185 533 328 l 539 445 q 508 453 473 453 q 411 453 376 412 q 341 370 341 299 z"},".":{"x_min":0,"x_max":275,"ha":275,"o":"m 65 61 q 65 97 83 116 q 102 135 137 135 q 173 135 191 115 q 210 95 210 61 q 210 26 191 6 q 172 -14 137 -14 q 102 -14 83 6 q 65 26 65 61 z"},"p":{"x_min":0,"x_max":623,"ha":623,"o":"m 356 -10 q 253 -10 197 64 l 190 64 q 197 -4 197 -19 l 197 -240 l 82 -240 l 82 540 l 175 540 q 179 525 191 468 l 197 468 q 250 550 358 550 q 459 550 515 477 q 572 403 572 271 q 572 139 514 64 q 457 -10 356 -10 z m 328 456 q 260 456 228 416 q 197 376 197 288 l 197 271 q 197 172 228 128 q 259 84 330 84 q 390 84 422 133 q 454 182 454 272 q 454 363 422 409 q 390 456 328 456 z"},"X":{"x_min":0,"x_max":622,"ha":622,"o":"m 620 0 l 486 0 l 307 292 l 127 0 l 2 0 l 239 370 l 17 714 l 147 714 l 312 444 l 477 714 l 603 714 l 380 368 z"},"*":{"x_min":0,"x_max":548,"ha":548,"o":"m 328 760 l 308 573 l 496 626 l 510 520 l 334 506 l 449 354 l 352 302 l 271 467 l 198 302 l 98 354 l 211 506 l 36 520 l 53 626 l 237 573 l 217 760 z"},"Y":{"x_min":0,"x_max":592,"ha":592,"o":"m 296 388 l 465 714 l 592 714 l 354 277 l 354 0 l 237 0 l 237 273 l 0 714 l 127 714 z"},"c":{"x_min":0,"x_max":495,"ha":495,"o":"m 300 -10 q 177 -10 114 62 q 50 133 50 267 q 50 403 116 477 q 183 550 309 550 q 395 550 463 518 l 428 426 q 355 454 308 454 q 168 454 168 268 q 168 177 203 132 q 238 86 305 86 q 382 86 450 124 l 450 24 q 419 6 385 -2 q 350 -10 300 -10 z"},"!":{"x_min":0,"x_max":276,"ha":276,"o":"m 181 217 l 96 217 l 71 714 l 206 714 z m 65 61 q 65 97 84 116 q 103 135 138 135 q 173 135 191 115 q 210 96 210 61 q 210 26 191 6 q 172 -14 138 -14 q 104 -14 84 5 q 65 25 65 61 z"},"/":{"x_min":0,"x_max":390,"ha":390,"o":"m 382 714 l 116 0 l 8 0 l 274 714 z"},"[":{"x_min":0,"x_max":330,"ha":330,"o":"m 305 -158 l 75 -158 l 75 714 l 305 714 l 305 628 l 180 628 l 180 -72 l 305 -72 z"},"6":{"x_min":0,"x_max":571,"ha":571,"o":"m 46 304 q 46 723 387 723 q 441 723 478 715 l 478 619 q 441 630 392 630 q 277 630 220 568 q 162 507 157 371 l 163 371 q 186 411 228 432 q 269 454 325 454 q 422 454 477 395 q 531 335 531 233 q 531 121 468 55 q 405 -10 297 -10 q 220 -10 164 27 q 107 64 76 135 q 46 205 46 304 z m 295 85 q 354 85 386 123 q 418 161 418 232 q 418 293 388 329 q 358 364 298 364 q 261 364 229 348 q 198 332 180 304 q 162 277 162 248 q 162 179 199 132 q 237 85 295 85 z"},"r":{"x_min":0,"x_max":431,"ha":431,"o":"m 356 550 q 391 550 413 545 l 402 438 q 377 444 351 444 q 282 444 240 399 q 197 354 197 282 l 197 0 l 82 0 l 82 540 l 172 540 l 187 445 l 193 445 q 220 493 263 521 q 306 550 356 550 z"},"2":{"x_min":0,"x_max":571,"ha":571,"o":"m 528 0 l 44 0 l 44 87 l 228 272 q 310 355 336 390 q 363 425 375 456 q 387 487 387 522 q 387 570 358 598 q 329 626 278 626 q 237 626 198 611 q 160 596 110 556 l 48 632 q 107 682 164 703 q 220 724 283 724 q 383 724 443 672 q 503 620 503 532 q 503 484 486 440 q 468 397 432 351 q 396 305 313 226 l 189 106 l 189 101 l 528 101 z"},"{":{"x_min":0,"x_max":386,"ha":386,"o":"m 152 140 q 152 231 22 231 l 22 324 q 88 324 120 346 q 152 369 152 414 l 152 566 q 152 642 205 678 q 258 714 364 714 l 364 625 q 308 623 283 602 q 258 582 258 542 l 258 397 q 258 300 146 281 l 146 275 q 258 257 258 159 l 258 13 q 258 -27 283 -47 q 308 -68 364 -69 l 364 -158 q 251 -157 201 -120 q 152 -83 152 1 z"},"9":{"x_min":0,"x_max":571,"ha":571,"o":"m 527 409 q 527 198 442 94 q 357 -10 186 -10 q 121 -10 93 -2 l 93 94 q 136 82 180 82 q 296 82 354 145 q 411 207 416 341 l 410 341 q 381 297 341 277 q 300 258 245 258 q 150 258 96 317 q 42 376 42 479 q 42 591 105 657 q 167 723 276 723 q 352 723 409 686 q 465 649 496 578 q 527 508 527 409 z m 278 628 q 218 628 187 589 q 155 550 155 480 q 155 419 184 384 q 214 349 274 349 q 332 349 372 384 q 411 418 411 465 q 411 508 394 546 q 377 584 347 606 q 317 628 278 628 z"}," ":{"x_min":0,"x_max":260,"ha":260,"o":""},"I":{"x_min":0,"x_max":305,"ha":305,"o":"m 94 0 l 94 714 l 211 714 l 211 0 z"},"H":{"x_min":0,"x_max":751,"ha":751,"o":"m 657 0 l 540 0 l 540 322 l 211 322 l 211 0 l 94 0 l 94 714 l 211 714 l 211 422 l 540 422 l 540 714 l 657 714 z"},"4":{"x_min":0,"x_max":571,"ha":571,"o":"m 553 156 l 457 156 l 457 0 l 345 0 l 345 156 l 19 156 l 19 244 l 345 716 l 457 716 l 457 251 l 553 251 z m 345 251 l 345 430 q 345 526 350 587 l 346 587 q 333 555 303 509 l 126 251 z"},"~":{"x_min":0,"x_max":571,"ha":571,"o":"m 161 338 q 137 338 107 323 q 77 309 47 279 l 47 372 q 95 425 169 425 q 201 425 230 418 q 259 412 302 394 q 366 367 409 367 q 435 367 465 382 q 496 397 524 426 l 524 333 q 473 279 402 279 q 370 279 340 286 q 309 294 268 311 q 206 338 161 338 z"},"D":{"x_min":0,"x_max":734,"ha":734,"o":"m 675 364 q 675 187 577 94 q 479 0 294 0 l 94 0 l 94 714 l 315 714 q 485 714 580 622 q 675 530 675 364 z m 552 360 q 552 616 312 616 l 211 616 l 211 98 l 294 98 q 552 98 552 360 z"},"^":{"x_min":0,"x_max":537,"ha":537,"o":"m 14 261 l 227 718 l 286 718 l 523 261 l 428 261 l 258 600 l 108 261 z"},"0":{"x_min":0,"x_max":571,"ha":571,"o":"m 528 357 q 528 171 468 81 q 408 -10 285 -10 q 166 -10 104 83 q 43 177 43 357 q 43 546 103 635 q 163 725 285 725 q 405 725 466 631 q 528 538 528 357 z m 159 357 q 159 211 189 148 q 219 86 285 86 q 351 86 382 149 q 412 213 412 357 q 412 500 382 565 q 351 629 285 629 q 219 629 189 566 q 159 503 159 357 z"},"F":{"x_min":0,"x_max":532,"ha":532,"o":"m 210 0 l 94 0 l 94 714 l 497 714 l 497 615 l 210 615 l 210 392 l 479 392 l 479 293 l 210 293 z"},"`":{"x_min":0,"x_max":592,"ha":592,"o":"m 337 606 q 303 631 252 679 q 200 728 177 756 l 177 766 l 310 766 q 329 732 361 688 q 393 643 414 618 l 414 606 z"},"k":{"x_min":0,"x_max":572,"ha":572,"o":"m 193 285 l 258 366 l 421 540 l 553 540 l 336 308 l 567 0 l 432 0 l 259 237 l 196 185 l 196 0 l 82 0 l 82 760 l 196 760 l 196 389 l 190 285 z"},"u":{"x_min":0,"x_max":635,"ha":635,"o":"m 463 0 l 447 71 l 441 71 q 417 33 373 12 q 329 -10 272 -10 q 174 -10 125 39 q 77 88 77 187 l 77 540 l 193 540 l 193 207 q 193 145 218 114 q 244 83 298 83 q 370 83 404 126 q 438 169 438 271 l 438 540 l 553 540 l 553 0 z"},"]":{"x_min":0,"x_max":330,"ha":330,"o":"m 25 -72 l 150 -72 l 150 628 l 25 628 l 25 714 l 254 714 l 254 -158 l 25 -158 z"},"U":{"x_min":0,"x_max":742,"ha":742,"o":"m 654 714 l 654 252 q 654 173 620 114 q 586 54 522 22 q 458 -10 368 -10 q 235 -10 162 61 q 88 131 88 254 l 88 714 l 205 714 l 205 262 q 205 174 246 132 q 287 90 372 90 q 537 90 537 263 l 537 714 z"},"o":{"x_min":0,"x_max":611,"ha":611,"o":"m 561 271 q 561 139 493 64 q 425 -10 304 -10 q 229 -10 170 24 q 112 59 81 123 q 50 187 50 271 q 50 402 117 476 q 185 550 307 550 q 424 550 493 474 q 561 399 561 271 z m 168 271 q 168 84 306 84 q 443 84 443 271 q 443 456 305 456 q 233 456 200 408 q 168 360 168 271 z"},"N":{"x_min":0,"x_max":783,"ha":783,"o":"m 689 0 l 546 0 l 195 569 l 191 569 l 193 537 q 200 446 200 371 l 200 0 l 94 0 l 94 714 l 236 714 l 586 148 l 589 148 q 588 159 585 230 q 582 300 582 340 l 582 714 l 689 714 z"},"+":{"x_min":0,"x_max":571,"ha":571,"o":"m 241 309 l 47 309 l 47 396 l 241 396 l 241 595 l 329 595 l 329 396 l 524 396 l 524 309 l 329 309 l 329 111 l 241 111 z"},"G":{"x_min":0,"x_max":726,"ha":726,"o":"m 386 387 l 649 387 l 649 29 q 584 8 525 -1 q 466 -10 397 -10 q 235 -10 147 86 q 59 182 59 357 q 59 529 158 627 q 257 724 431 724 q 543 724 643 681 l 602 584 q 515 624 428 624 q 314 624 248 552 q 181 480 181 356 q 181 225 241 157 q 301 89 413 89 q 470 89 534 103 l 534 287 l 386 287 z"},"q":{"x_min":0,"x_max":623,"ha":623,"o":"m 296 82 q 368 82 400 124 q 431 166 431 250 l 431 268 q 431 368 399 412 q 366 456 294 456 q 232 456 200 407 q 168 358 168 267 q 168 82 296 82 z m 263 -10 q 163 -10 106 64 q 50 137 50 269 q 50 401 107 475 q 165 550 266 550 q 317 550 357 531 q 397 512 429 469 l 433 469 l 446 540 l 541 540 l 541 -240 l 426 -240 l 426 -11 q 426 10 428 34 q 430 58 431 71 l 425 71 q 374 -10 263 -10 z"},"d":{"x_min":0,"x_max":623,"ha":623,"o":"m 264 -10 q 163 -10 106 63 q 50 137 50 269 q 50 402 107 476 q 165 550 266 550 q 373 550 428 471 l 434 471 q 426 529 426 563 l 426 760 l 541 760 l 541 0 l 451 0 l 431 71 l 426 71 q 371 -10 264 -10 z m 295 83 q 366 83 398 123 q 430 163 431 252 l 431 268 q 431 370 398 413 q 365 456 294 456 q 233 456 201 407 q 168 358 168 267 q 168 177 200 130 q 231 83 295 83 z"},"1":{"x_min":0,"x_max":571,"ha":571,"o":"m 381 0 l 266 0 l 266 461 q 266 543 270 592 q 259 580 242 566 q 226 552 133 476 l 75 549 l 285 714 l 381 714 z"},"5":{"x_min":0,"x_max":571,"ha":571,"o":"m 286 446 q 394 446 457 389 q 520 332 520 233 q 520 119 448 54 q 377 -10 245 -10 q 125 -10 57 29 l 57 133 q 97 110 148 98 q 199 86 243 86 q 321 86 361 121 q 402 155 402 222 q 402 350 239 350 q 216 350 182 345 q 148 341 123 335 l 72 365 l 99 714 l 470 714 l 470 612 l 200 612 l 184 435 q 201 438 226 442 q 250 446 286 446 z"}}}
